const int song_dywtbasm[][2] PROGMEM = {
  {85,0}, //Total Number of Notes

  {NOTE_REST,2},{NOTE_DS4,1}, {NOTE_DS4,1}, {NOTE_DS4,1},{NOTE_AS3,1},{NOTE_DS4,1},{NOTE_G4,1},              //Bar  1
  {NOTE_F4,2},  {NOTE_G4,6},                                                                                 //Bar  2
  {NOTE_REST,2},{NOTE_DS4,1}, {NOTE_DS4,1}, {NOTE_DS4,1},{NOTE_AS3,1},{NOTE_DS4,1},{NOTE_G4,1},              //Bar  3
  {NOTE_F4,6},  {NOTE_REST,2},                                                                               //Bar  4
  {NOTE_REST,1},{NOTE_AS3,1}, {NOTE_DS4,1}, {NOTE_DS4,1},{NOTE_DS4,1},{NOTE_AS3,1},{NOTE_DS4,1},{NOTE_G4,1}, //Bar  5
  {NOTE_GS4,1}, {NOTE_G4,1},  {NOTE_DS4,3}, {NOTE_AS3,1},{NOTE_GS4,1},{NOTE_G4,1},                           //Bar  6
  {NOTE_DS4,3}, {NOTE_AS3,1}, {NOTE_DS4,1}, {NOTE_AS3,1},{NOTE_DS4,1},{NOTE_G4,1},                           //Bar  7
  {NOTE_AS4,6}, {NOTE_REST,2},                                                                               //Bar  8
  {NOTE_REST,3},{NOTE_G4,1},  {NOTE_G4,1},  {NOTE_F4,1}, {NOTE_G4,1}, {NOTE_GS4,1},                          //Bar  9
  {NOTE_AS4,1}, {NOTE_DS4,5}, {NOTE_REST,1},{NOTE_DS4,1},                                                    //Bar 10
  {NOTE_F4,2},  {NOTE_G4,1},  {NOTE_DS4,5},                                                                  //Bar 11
  {NOTE_G4,2},  {NOTE_F4,1},  {NOTE_DS4,1}, {NOTE_F4,2}, {NOTE_G4,2},                                        //Bar 12
  {NOTE_C5,6},  {NOTE_REST,2},                                                                               //Bar 13
  {NOTE_REST,2},{NOTE_DS4,1}, {NOTE_DS4,1}, {NOTE_DS4,1},{NOTE_AS3,1},{NOTE_DS4,1},{NOTE_G4,1},              //Bar 14
  {NOTE_F4,2},  {NOTE_G4,6},                                                                                 //Bar 15
  {NOTE_REST,1},{NOTE_AS3,1}, {NOTE_DS4,1}, {NOTE_DS4,1},{NOTE_DS4,1},{NOTE_AS3,1},{NOTE_DS4,1},{NOTE_G4,1}, //Bar 16
  {NOTE_F4,1},  {NOTE_DS4,3}, {NOTE_DS4,1}, {NOTE_F4,1}, {NOTE_DS4,1},{NOTE_D4,1},                           //Bar 17
  {NOTE_DS4,9}                                                                                               //Bar 18
};
